TITLE ""
FILE "DISC1Track23.mp3" MP3
  TRACK 01 AUDIO
    TITLE "DISC1Track23_01"
    INDEX 01 00:00:00
  TRACK 02 AUDIO
    TITLE "DISC1Track23_02"
    INDEX 01 00:03:60
  TRACK 03 AUDIO
    TITLE "DISC1Track23_03"
    INDEX 01 00:04:02
  TRACK 04 AUDIO
    TITLE "DISC1Track23_04"
    INDEX 01 00:06:48
  TRACK 05 AUDIO
    TITLE "DISC1Track23_05"
    INDEX 01 00:08:71
  TRACK 06 AUDIO
    TITLE "DISC1Track23_06"
    INDEX 01 00:11:14
  TRACK 07 AUDIO
    TITLE "DISC1Track23_07"
    INDEX 01 00:11:36
  TRACK 08 AUDIO
    TITLE "DISC1Track23_08"
    INDEX 01 00:13:58
  TRACK 09 AUDIO
    TITLE "DISC1Track23_09"
    INDEX 01 00:16:45
  TRACK 10 AUDIO
    TITLE "DISC1Track23_10"
    INDEX 01 00:19:23
  TRACK 11 AUDIO
    TITLE "DISC1Track23_11"
    INDEX 01 00:19:47
  TRACK 12 AUDIO
    TITLE "DISC1Track23_12"
    INDEX 01 00:21:71
  TRACK 13 AUDIO
    TITLE "DISC1Track23_13"
    INDEX 01 00:24:17
  TRACK 14 AUDIO
    TITLE "DISC1Track23_14"
    INDEX 01 00:26:31
  TRACK 15 AUDIO
    TITLE "DISC1Track23_15"
    INDEX 01 00:26:57
  TRACK 16 AUDIO
    TITLE "DISC1Track23_16"
    INDEX 01 00:29:55
  TRACK 17 AUDIO
    TITLE "DISC1Track23_17"
    INDEX 01 00:32:01
  TRACK 18 AUDIO
    TITLE "DISC1Track23_18"
    INDEX 01 00:34:11
  TRACK 19 AUDIO
    TITLE "DISC1Track23_19"
    INDEX 01 00:34:37
  TRACK 20 AUDIO
    TITLE "DISC1Track23_20"
    INDEX 01 00:36:02
  TRACK 21 AUDIO
    TITLE "DISC1Track23_21"
    INDEX 01 00:37:72
  TRACK 22 AUDIO
    TITLE "DISC1Track23_22"
    INDEX 01 00:39:61
  TRACK 23 AUDIO
    TITLE "DISC1Track23_23"
    INDEX 01 00:40:12
  TRACK 24 AUDIO
    TITLE "DISC1Track23_24"
    INDEX 01 00:42:46
  TRACK 25 AUDIO
    TITLE "DISC1Track23_25"
    INDEX 01 00:44:68
  TRACK 26 AUDIO
    TITLE "DISC1Track23_26"
    INDEX 01 00:47:10
  TRACK 27 AUDIO
    TITLE "DISC1Track23_27"
    INDEX 01 00:47:31
  TRACK 28 AUDIO
    TITLE "DISC1Track23_28"
    INDEX 01 00:49:62
  TRACK 29 AUDIO
    TITLE "DISC1Track23_29"
    INDEX 01 00:52:03
  TRACK 30 AUDIO
    TITLE "DISC1Track23_30"
    INDEX 01 00:54:12
  TRACK 31 AUDIO
    TITLE "DISC1Track23_31"
    INDEX 01 00:54:35
  TRACK 32 AUDIO
    TITLE "DISC1Track23_32"
    INDEX 01 00:56:21
  TRACK 33 AUDIO
    TITLE "DISC1Track23_33"
    INDEX 01 00:58:27
  TRACK 34 AUDIO
    TITLE "DISC1Track23_34"
    INDEX 01 01:00:30
  TRACK 35 AUDIO
    TITLE "DISC1Track23_35"
    INDEX 01 01:00:54
  TRACK 36 AUDIO
    TITLE "DISC1Track23_36"
    INDEX 01 01:03:28
  TRACK 37 AUDIO
    TITLE "DISC1Track23_37"
    INDEX 01 01:06:01
  TRACK 38 AUDIO
    TITLE "DISC1Track23_38"
    INDEX 01 01:08:43
  TRACK 39 AUDIO
    TITLE "DISC1Track23_39"
    INDEX 01 01:08:67
  TRACK 40 AUDIO
    TITLE "DISC1Track23_40"
    INDEX 01 01:11:10
  TRACK 41 AUDIO
    TITLE "DISC1Track23_41"
    INDEX 01 01:13:15
  TRACK 42 AUDIO
    TITLE "DISC1Track23_42"
    INDEX 01 01:15:16
  TRACK 43 AUDIO
    TITLE "DISC1Track23_43"
    INDEX 01 01:15:39
  TRACK 44 AUDIO
    TITLE "DISC1Track23_44"
    INDEX 01 01:18:22
  TRACK 45 AUDIO
    TITLE "DISC1Track23_45"
    INDEX 01 01:21:15
  TRACK 46 AUDIO
    TITLE "DISC1Track23_46"
    INDEX 01 01:23:70
  TRACK 47 AUDIO
    TITLE "DISC1Track23_47"
    INDEX 01 01:24:19
  TRACK 48 AUDIO
    TITLE "DISC1Track23_48"
    INDEX 01 01:26:75
  TRACK 49 AUDIO
    TITLE "DISC1Track23_49"
    INDEX 01 01:29:40
  TRACK 50 AUDIO
    TITLE "DISC1Track23_50"
    INDEX 01 01:32:01
